A Hollywood stunt performer who moonlights as a wheelman discovers that a contract has been put on him after a heist gone wrong.

CAST:
Ryan Gosling...........Driver
Carey Mulligan.........Irene
Bryan Cranston.........Shannon
Albert Brooks..........Bernie Rose
Oscar Isaac............Standard
Christina Hendricks....Blanche
Ron Perlman............Nino

IMDB rating : 8.6/10 (from 14,231 users)

Format                           : Matroska
File size                        : 999 MiB
Duration                         : 1h 38mn
Overall bit rate                 : 1 419 Kbps
Encoded date                     : UTC 2011-09-27 17:37:54
Writing application              : mkvmerge v4.9.1 (\'Ich will\') creado el Jul 11 2011 23:53:15
Writing library                  : libebml v1.2.1 + libmatroska v1.1.1

Video
ID                               : 1
Format                           : AVC
Format/Info                      : Advanced Video Codec
Format profile                   : Main@L2.1
Format settings, CABAC           : Yes
Format settings, ReFrames        : 4 frames
Muxing mode                      : Container profile=Unknown@2.1
Codec ID                         : V_MPEG4/ISO/AVC
Duration                         : 1h 38mn
Bit rate                         : 1 071 Kbps
Nominal bit rate                 : 1 097 Kbps
Width                            : 640 pixels
Height                           : 300 pixels
Display aspect ratio             : 2.2:1
Frame rate mode                  : Variable
Frame rate                       : 23.976 fps
Resolution                       : 8 bits
Colorimetry                      : 4:2:0
Scan type                        : Progressive
Bits/(Pixel*Frame)               : 0.233
Stream size                      : 753 MiB (75%)
Writing library                  : x264 core 112

Audio
ID                               : 2
Format                           : AC-3
Format/Info                      : Audio Coding 3
Codec ID                         : A_AC3
Duration                         : 1h 38mn
Bit rate mode                    : Constant
Bit rate                         : 320 Kbps
Channel(s)                       : 6 channels
Channel positions                : Front: L C R, Side: L R, LFE
Sampling rate                    : 48.0 KHz
Stream size                      : 225 MiB (23%)

Text
ID                               : 3
Format                           : VobSub
Codec ID                         : S_VOBSUB
Codec ID/Info                    : The same subtitle format used on DVDs
Language                         : Romanian
